<?xml version="1.0" encoding="utf-8"?>
<!-- Generator: Adobe Illustrator 24.1.1, SVG Export Plug-In . SVG Version: 6.00 Build 0)  -->
<svg version="1.1" id="Capa_1" xmlns="http://www.w3.org/2000/svg" xmlns:xlink="http://www.w3.org/1999/xlink" x="0px" y="0px"
	 viewBox="0 0 470 497" style="enable-background:new 0 0 470 497;" xml:space="preserve">
<style type="text/css">
	.st0{fill:#FFFFFF;}
	.st1{fill:#FFFFFF;stroke:#209FCE;stroke-width:2;stroke-linecap:round;stroke-linejoin:round;}
	.st2{fill:#209FCE;}
	.st3{fill:#B6F0FF;stroke:#209FCE;stroke-width:2;stroke-linecap:round;stroke-linejoin:round;}
	.st4{fill:none;stroke:#209FCE;stroke-width:4;stroke-linecap:round;stroke-linejoin:round;}
</style>
<g>
	<path class="st0" d="M180.9,87.1l-68.3-38.5c-5.1-2.8-11.2-2.8-16.3,0L28.1,87.1c-5,2.8-8.1,8.1-8.1,13.8v77c0,5.7,3.1,11,8.1,13.8
		l68.3,38.5c5.1,2.8,11.2,2.8,16.3,0l68.3-38.5c5-2.8,8.1-8.1,8.1-13.8v-77C189,95.1,185.9,89.9,180.9,87.1"/>
	<g>
		<path class="st1" d="M67,164.6c-4.7-0.2-8.4-3.9-8.6-8.6v-51c0-2.3,0.9-4.4,2.6-5.9c1.6-1.6,3.7-2.5,5.9-2.5h76.6
			c2.2,0,4.4,0.9,5.9,2.5c1.7,1.5,2.6,3.7,2.6,5.9v51c-0.2,4.7-3.9,8.4-8.6,8.6H67z"/>
		<rect x="65.9" y="102.8" class="st1" width="78" height="7"/>
		<rect x="65.9" y="117.3" class="st1" width="78" height="39.7"/>
		<rect x="108.7" y="118.6" class="st2" width="29.1" height="33.9"/>
		<polygon class="st3" points="113.8,164.6 113.8,173.2 122.2,173.2 122.2,181.6 88.3,181.6 88.3,173.2 96.7,173.2 96.7,164.6 		"/>
	</g>
</g>
<g>
	<path class="st0" d="M200.4,303.2l-69-38.9c-5.1-2.9-11.3-2.9-16.4,0l-69,38.9c-5.1,2.8-8.2,8.1-8.2,13.9V395
		c0,5.8,3.2,11.1,8.2,13.9l69,38.9c5.1,2.9,11.3,2.9,16.4,0l69-38.9c5.1-2.8,8.2-8.1,8.2-13.9v-77.8
		C208.6,311.4,205.5,306,200.4,303.2"/>
	<g>
		<g>
			<path class="st2" d="M168.7,351.3c3.7-2.6,6.1-6.8,6.1-11.7c0-7.9-6.4-14.2-14.2-14.2s-14.2,6.4-14.2,14.2
				c0,4.8,2.4,9.1,6.1,11.7c-3.1,1.1-6,2.8-8.4,4.9c-3.3-2.8-7.3-5-11.6-6.3c5.2-3.2,8.7-8.9,8.7-15.5c0-10-8.1-18-18-18
				s-18,8.1-18,18c0,6.5,3.5,12.3,8.7,15.5c-4.2,1.3-8.1,3.4-11.4,6.2c-2.4-2.1-5.2-3.8-8.3-4.8c3.7-2.6,6.1-6.8,6.1-11.7
				c0-7.9-6.4-14.2-14.2-14.2s-14.2,6.4-14.2,14.2c0,4.8,2.4,9.1,6.1,11.7c-9.8,3.4-16.8,12.7-16.8,23.6v1.6c0,0,0,0.1,0.1,0.1h30.2
				c-0.2,1.4-0.3,2.8-0.3,4.2v1.7c0,7.3,5.9,13.1,13.1,13.1h38.3c7.3,0,13.1-5.9,13.1-13.1v-1.7c0-1.4-0.1-2.8-0.3-4.2h30.4
				c0,0,0.1,0,0.1-0.1V375C185.6,364,178.5,354.7,168.7,351.3z M150.3,339.6c0-5.7,4.6-10.3,10.3-10.3s10.3,4.6,10.3,10.3
				c0,5.6-4.5,10.2-10.1,10.3c-0.1,0-0.1,0-0.2,0c-0.1,0-0.1,0-0.2,0C154.8,349.8,150.3,345.3,150.3,339.6z M109,334.5
				c0-7.8,6.3-14.1,14.1-14.1s14.1,6.3,14.1,14.1c0,7.5-5.9,13.7-13.3,14.1c-0.3,0-0.5,0-0.8,0s-0.5,0-0.8,0
				C114.9,348.2,109,342,109,334.5z M75.5,339.6c0-5.7,4.6-10.3,10.3-10.3s10.3,4.6,10.3,10.3c0,5.6-4.5,10.2-10.1,10.3
				c-0.1,0-0.1,0-0.2,0s-0.1,0-0.2,0C80,349.8,75.5,345.3,75.5,339.6z M91.8,372.7h-27c1.1-10.5,10-18.8,20.8-18.8c0,0,0.1,0,0.1,0
				s0.1,0,0.1,0c5.1,0,9.8,1.9,13.5,5C95.8,362.7,93.2,367.5,91.8,372.7z M151.4,382.5c0,5.1-4.1,9.2-9.2,9.2h-38.3
				c-5.1,0-9.2-4.1-9.2-9.2v-1.7c0-15.3,12.2-27.9,27.5-28.3c0.3,0,0.6,0,0.8,0c0.3,0,0.6,0,0.8,0c15.2,0.4,27.5,13,27.5,28.3V382.5
				z M154.3,372.7c-1.4-5.2-3.9-9.9-7.5-13.7c3.7-3.2,8.4-5.1,13.6-5.1c0,0,0.1,0,0.1,0c0,0,0.1,0,0.1,0
				c10.8,0.1,19.7,8.3,20.8,18.8H154.3z"/>
		</g>
	</g>
</g>
<g>
	<path class="st0" d="M386,90.4l-60.8-34.3c-4.5-2.5-10-2.5-14.5,0L250,90.4c-4.5,2.5-7.2,7.2-7.2,12.3v68.6c0,5.1,2.8,9.8,7.2,12.3
		l60.8,34.3c4.5,2.5,10,2.5,14.5,0l60.8-34.3c4.5-2.5,7.2-7.2,7.2-12.3v-68.6C393.2,97.6,390.5,92.9,386,90.4"/>
	<g>
		<path class="st2" d="M359.6,119.9l-20.7-8c3.7-10.6-1.8-22.3-12.5-26c-10.6-3.7-22.3,1.8-26,12.5c-1.5,4.4-1.5,9.2,0,13.6l-20.7,8
			c-0.9,0.3-1.4,1.2-1.4,2.1v48.1c0,0.9,0.6,1.7,1.4,2.1l39.2,15.2c0.3,0.1,0.5,0.2,0.8,0.2c0.3,0,0.5-0.1,0.8-0.2l0,0l39.2-15.2
			c0.9-0.3,1.4-1.2,1.4-2.1V122C361,121.1,360.5,120.2,359.6,119.9L359.6,119.9z M352.6,122l-7.2,2.8l-12-4.6
			c1.4-1.3,2.6-2.7,3.5-4.3L352.6,122z M329,123.3l10.2,3.9l-5.8,2.2l-10.6-4.1C325.1,124.9,327.1,124.3,329,123.3z M336,133.2
			l7.5-2.9v9.3l-1.3-0.8c-0.9-0.6-2.1-0.4-2.8,0.3l-3.4,3.6V133.2z M319.6,89.2c8.8,0,16,7.1,16,16s-7.1,16-16,16s-16-7.1-16-16l0,0
			C303.7,96.3,310.8,89.2,319.6,89.2z M303.6,117.7l-3-1.2l1.7-0.7C302.7,116.5,303.1,117.1,303.6,117.7L303.6,117.7z M294.4,118.9
			l32.9,12.9l-7.7,3l-33-12.8L294.4,118.9z M282.7,168.5v-43.3l34.7,13.5V182L282.7,168.5z M321.9,182v-43.3l9.7-3.7v13.4
			c0,0.9,0.6,1.7,1.4,2.1c0.3,0.1,0.5,0.2,0.8,0.2c0.6,0,1.2-0.3,1.6-0.7l6-6.3l3.1,2c1,0.7,2.4,0.4,3.1-0.7
			c0.2-0.4,0.4-0.8,0.4-1.2v-15.1l8.7-3.4v43.3L321.9,182z"/>
		<path class="st2" d="M315.7,111.7c0.9,0.7,2.1,0.7,2.9,0l10.8-9.7c0.9-0.8,1.1-2.2,0.3-3.1s-2.2-1.1-3.1-0.3c0,0-0.1,0.1-0.1,0.1
			l-9.4,8.4l-4.3-3.6c-0.9-0.8-2.3-0.7-3.1,0.3c-0.8,0.9-0.7,2.3,0.3,3.1L315.7,111.7z"/>
	</g>
</g>
<g>
	<path class="st0" d="M420.8,311.2l-73-41.1c-5.4-3-12-3-17.4,0l-73.1,41.1c-5.4,3-8.7,8.6-8.7,14.8v82.5c0.1,6.1,3.4,11.7,8.8,14.7
		l73.1,41.1c5.4,3,12,3,17.4,0l73-41.1c5.4-3,8.7-8.6,8.7-14.7V326C429.5,319.9,426.2,314.2,420.8,311.2"/>
	<circle class="st4" cx="339" cy="367.2" r="55.1"/>
	<path class="st2" d="M341,413.4h-1.9c-1.3,0-2.3-1-2.3-2.3V402c-8.3-0.6-16.1-4.2-22.1-9.9c-0.9-0.9-0.9-2.3,0-3.2c0,0,0,0,0,0
		l1.3-1.3c0.9-0.9,2.4-0.9,3.3,0c0,0,0,0,0,0c4.7,4.6,10.9,7.4,17.4,7.9v-27.6c-8.5-2.7-19.1-6.7-19.1-19.8
		c0-9.1,7.4-15.5,19.1-16.8v-8c0-1.3,1-2.3,2.3-2.3h1.9c1.3,0,2.3,1,2.3,2.3v7.8c5.9,0.3,11.7,2.1,16.8,5.2c1,0.7,1.4,2.1,0.7,3.1
		l-1,1.5c-0.7,1.1-2.1,1.4-3.2,0.7c0,0,0,0,0,0c-4.1-2.4-8.7-3.8-13.4-4.1v25.4c10.1,3,20.8,6.9,20.6,20.6c0,10-8,17-20.6,18.3v9.2
		c0.1,1.3-0.9,2.4-2.1,2.4C341.1,413.4,341,413.4,341,413.4z M343.3,369.8v25.7c8.8-1.1,14.2-5.5,14.2-11.8
		C357.5,375.5,351.9,372.6,343.3,369.8z M336.8,337.8c-7.9,1-12.7,4.8-12.7,10.3c0,7.4,5.3,10.5,12.7,12.9V337.8z"/>
</g>
</svg>
