<?xml version="1.0" encoding="utf-8"?>
<!-- Generator: Adobe Illustrator 24.1.1, SVG Export Plug-In . SVG Version: 6.00 Build 0)  -->
<svg version="1.1" id="bca70d0a-57dd-451b-a82c-bb6927f27458"
	 xmlns="http://www.w3.org/2000/svg" xmlns:xlink="http://www.w3.org/1999/xlink" x="0px" y="0px" viewBox="0 0 798.7 647"
	 style="enable-background:new 0 0 798.7 647;" xml:space="preserve">
<style type="text/css">
	.st0{fill:#209FCE;}
	.st1{fill:#24B0D1;}
	.st2{fill:#046FB7;stroke:#0870B7;stroke-width:10;stroke-miterlimit:10;}
	.st3{fill:#FFB8B8;}
	.st4{fill:#B6F0FF;}
	.st5{fill:#FFFFFF;}
	.st6{fill:#FFFFFF;stroke:#209FCE;stroke-width:2;stroke-linecap:round;stroke-linejoin:round;}
	.st7{fill:#B6F0FF;stroke:#209FCE;stroke-width:2;stroke-linecap:round;stroke-linejoin:round;}
	.st8{fill:none;stroke:#209FCE;stroke-width:4;stroke-linecap:round;stroke-linejoin:round;}
	.st9{fill:#0260A0;}
	.st10{fill:#2F2E41;}
	.st11{fill:#336699;}
</style>
<g>
	<polygon class="st0" points="126.8,0 74,103 84.7,103 84.7,187 31,187 0,247.4 383.5,444 510.4,196.6 	"/>
	<rect x="115.7" y="67" class="st1" width="588" height="295"/>
	<polygon class="st2" points="181.2,258.8 179.8,257.3 244.4,195.7 301.4,236.7 347.4,185.7 367.6,202.8 422.6,169.9 483.6,210.9 
		579.3,156.4 580.3,158.1 483.5,213.2 422.5,172.2 367.4,205.3 347.6,188.4 301.7,239.4 244.6,198.3 	"/>
	<circle class="st0" cx="765.2" cy="53.5" r="33.5"/>
	<circle class="st0" cx="703.2" cy="69.5" r="23.5"/>
	<circle class="st0" cx="674.2" cy="500.5" r="12.5"/>
	<circle class="st0" cx="461.2" cy="565.5" r="9.5"/>
	<circle class="st0" cx="429.2" cy="439.5" r="12.5"/>
	<circle class="st3" cx="544.5" cy="216.7" r="22"/>
	<rect x="12.7" y="115" class="st4" width="64" height="64"/>
	<g>
		<path class="st5" d="M227.6,239l-35.2-19.8c-2.6-1.5-5.8-1.5-8.4,0L148.8,239c-2.6,1.4-4.2,4.2-4.2,7.1v39.7c0,3,1.6,5.7,4.2,7.1
			l35.2,19.8c2.6,1.5,5.8,1.5,8.4,0l35.2-19.8c2.6-1.4,4.2-4.2,4.2-7.1v-39.7C231.8,243.1,230.2,240.4,227.6,239"/>
		<g>
			<path class="st6" d="M168.8,279c-2.4-0.1-4.3-2-4.4-4.4v-26.3c0-1.2,0.5-2.3,1.3-3.1c0.8-0.8,1.9-1.3,3.1-1.3h39.5
				c1.1,0,2.2,0.5,3.1,1.3c0.9,0.8,1.3,1.9,1.3,3.1v26.3c-0.1,2.4-2,4.3-4.4,4.4H168.8z"/>
			<rect x="168.3" y="247.1" class="st6" width="40.2" height="3.6"/>
			<rect x="168.3" y="254.6" class="st6" width="40.2" height="20.5"/>
			<rect x="190.3" y="255.2" class="st0" width="15" height="17.5"/>
			<polygon class="st7" points="193,279 193,283.4 197.3,283.4 197.3,287.7 179.8,287.7 179.8,283.4 184.2,283.4 184.2,279 			"/>
		</g>
	</g>
	<g>
		<path class="st5" d="M355.5,162.9l-41.1-23.2c-3-1.7-6.8-1.7-9.8,0l-41.1,23.2c-3,1.7-4.9,4.9-4.9,8.3v46.4c0,3.5,1.9,6.6,4.9,8.3
			l41.1,23.2c3,1.7,6.8,1.7,9.8,0l41.1-23.2c3-1.7,4.9-4.9,4.9-8.3v-46.4C360.3,167.8,358.5,164.6,355.5,162.9"/>
		<g>
			<g>
				<path class="st0" d="M336.6,191.6c2.2-1.5,3.6-4.1,3.6-6.9c0-4.7-3.8-8.5-8.5-8.5c-4.7,0-8.5,3.8-8.5,8.5c0,2.9,1.4,5.4,3.6,6.9
					c-1.9,0.6-3.6,1.6-5,2.9c-2-1.7-4.3-3-6.9-3.8c3.1-1.9,5.2-5.3,5.2-9.2c0-5.9-4.8-10.8-10.8-10.8c-5.9,0-10.8,4.8-10.8,10.8
					c0,3.9,2.1,7.3,5.2,9.2c-2.5,0.8-4.8,2-6.8,3.7c-1.4-1.3-3.1-2.3-5-2.9c2.2-1.5,3.6-4.1,3.6-6.9c0-4.7-3.8-8.5-8.5-8.5
					c-4.7,0-8.5,3.8-8.5,8.5c0,2.9,1.4,5.4,3.6,6.9c-5.8,2-10,7.6-10,14.1v1c0,0,0,0.1,0.1,0.1h18c-0.1,0.8-0.2,1.6-0.2,2.5v1
					c0,4.3,3.5,7.8,7.8,7.8h22.8c4.3,0,7.8-3.5,7.8-7.8v-1c0-0.8-0.1-1.7-0.2-2.5h18.1c0,0,0.1,0,0.1-0.1v-1
					C346.6,199.2,342.4,193.6,336.6,191.6z M325.6,184.7c0-3.4,2.8-6.1,6.1-6.1s6.1,2.8,6.1,6.1c0,3.3-2.7,6.1-6,6.1
					c0,0-0.1,0-0.1,0s-0.1,0-0.1,0C328.2,190.7,325.6,188,325.6,184.7z M300.9,181.6c0-4.6,3.8-8.4,8.4-8.4s8.4,3.8,8.4,8.4
					c0,4.5-3.5,8.1-7.9,8.4c-0.2,0-0.3,0-0.5,0s-0.3,0-0.5,0C304.4,189.7,300.9,186.1,300.9,181.6z M281,184.7
					c0-3.4,2.8-6.1,6.1-6.1c3.4,0,6.1,2.8,6.1,6.1c0,3.3-2.7,6.1-6,6.1c0,0-0.1,0-0.1,0s-0.1,0-0.1,0C283.7,190.7,281,188,281,184.7
					z M290.7,204.4h-16.1c0.7-6.3,6-11.2,12.4-11.2c0,0,0.1,0,0.1,0c0,0,0.1,0,0.1,0c3.1,0,5.9,1.1,8,3
					C293.1,198.4,291.5,201.3,290.7,204.4z M326.2,210.2c0,3-2.5,5.5-5.5,5.5h-22.8c-3,0-5.5-2.5-5.5-5.5v-1
					c0-9.1,7.3-16.6,16.4-16.9c0.2,0,0.3,0,0.5,0s0.3,0,0.5,0c9.1,0.3,16.4,7.7,16.4,16.9V210.2z M328,204.4
					c-0.8-3.1-2.4-5.9-4.5-8.2c2.2-1.9,5-3,8.1-3c0,0,0.1,0,0.1,0c0,0,0.1,0,0.1,0c6.4,0,11.7,5,12.4,11.2H328z"/>
			</g>
		</g>
	</g>
	<g>
		<path class="st5" d="M483.6,157.5l-31.4-17.7c-2.3-1.3-5.2-1.3-7.5,0l-31.4,17.7c-2.3,1.3-3.7,3.7-3.7,6.3v35.4
			c0,2.6,1.4,5.1,3.7,6.3l31.4,17.7c2.3,1.3,5.2,1.3,7.5,0l31.4-17.7c2.3-1.3,3.7-3.7,3.7-6.3v-35.4
			C487.3,161.2,485.9,158.8,483.6,157.5"/>
		<g>
			<path class="st0" d="M470,172.7l-10.7-4.1c1.9-5.5-1-11.5-6.4-13.4s-11.5,1-13.4,6.4c-0.8,2.3-0.8,4.7,0,7l-10.7,4.1
				c-0.4,0.2-0.7,0.6-0.7,1.1v24.8c0,0.5,0.3,0.9,0.7,1.1l20.2,7.8c0.1,0.1,0.3,0.1,0.4,0.1c0.1,0,0.3,0,0.4-0.1l0,0l20.2-7.8
				c0.4-0.2,0.7-0.6,0.7-1.1v-24.8C470.7,173.3,470.4,172.9,470,172.7L470,172.7z M466.4,173.8l-3.7,1.4l-6.2-2.4
				c0.7-0.6,1.3-1.4,1.8-2.2L466.4,173.8z M454.2,174.5l5.3,2l-3,1.2l-5.4-2.1C452.1,175.3,453.2,175,454.2,174.5z M457.8,179.6
				l3.9-1.5v4.8l-0.6-0.4c-0.5-0.3-1.1-0.2-1.5,0.2l-1.8,1.9V179.6z M449.4,156.9c4.5,0,8.2,3.7,8.2,8.2c0,4.5-3.7,8.2-8.2,8.2
				c-4.5,0-8.2-3.7-8.2-8.2l0,0C441.1,160.6,444.8,156.9,449.4,156.9z M441.1,171.6l-1.5-0.6l0.9-0.3
				C440.6,171,440.8,171.3,441.1,171.6L441.1,171.6z M436.4,172.2l17,6.6l-4,1.5l-17-6.6L436.4,172.2z M430.3,197.8v-22.3l17.9,6.9
				v22.3L430.3,197.8z M450.5,204.8v-22.3l5-1.9v6.9c0,0.5,0.3,0.9,0.7,1.1c0.1,0.1,0.3,0.1,0.4,0.1c0.3,0,0.6-0.1,0.8-0.4l3.1-3.3
				l1.6,1.1c0.5,0.3,1.2,0.2,1.6-0.3c0.1-0.2,0.2-0.4,0.2-0.6v-7.8l4.5-1.7v22.3L450.5,204.8z"/>
			<path class="st0" d="M447.3,168.5c0.4,0.4,1.1,0.4,1.5,0l5.6-5c0.5-0.4,0.5-1.1,0.1-1.6s-1.1-0.5-1.6-0.1c0,0,0,0-0.1,0.1
				l-4.8,4.3l-2.2-1.9c-0.5-0.4-1.2-0.3-1.6,0.1c-0.4,0.5-0.3,1.2,0.1,1.6L447.3,168.5z"/>
		</g>
	</g>
	<g>
		<path class="st5" d="M617.8,105.9l-35.5-20c-2.6-1.5-5.8-1.5-8.5,0l-35.5,20c-2.6,1.5-4.2,4.2-4.2,7.2v40.1c0,3,1.7,5.7,4.3,7.1
			l35.5,20c2.6,1.5,5.8,1.5,8.5,0l35.5-20c2.6-1.4,4.2-4.2,4.2-7.2v-40C622.1,110.1,620.5,107.4,617.8,105.9"/>
		<circle class="st8" cx="578.1" cy="133.2" r="26.8"/>
		<path class="st0" d="M579.1,155.6h-0.9c-0.6,0-1.1-0.5-1.1-1.1v-4.4c-4-0.3-7.8-2-10.7-4.8c-0.4-0.4-0.4-1.1,0-1.6c0,0,0,0,0,0
			l0.6-0.6c0.4-0.4,1.2-0.4,1.6,0c0,0,0,0,0,0c2.3,2.2,5.3,3.6,8.5,3.9v-13.4c-4.1-1.3-9.3-3.2-9.3-9.6c0-4.4,3.6-7.5,9.3-8.1v-3.9
			c0-0.6,0.5-1.1,1.1-1.1h0.9c0.6,0,1.1,0.5,1.1,1.1v3.8c2.9,0.2,5.7,1,8.2,2.5c0.5,0.3,0.7,1,0.3,1.5l-0.5,0.7
			c-0.3,0.5-1,0.7-1.5,0.3c0,0,0,0,0,0c-2-1.2-4.2-1.9-6.5-2v12.4c4.9,1.5,10.1,3.4,10,10c0,4.9-3.9,8.3-10,8.9v4.5
			C580.2,155,579.7,155.6,579.1,155.6C579.1,155.6,579.1,155.6,579.1,155.6z M580.2,134.4v12.5c4.3-0.5,6.9-2.7,6.9-5.7
			C587.1,137.2,584.4,135.8,580.2,134.4z M577,118.9c-3.8,0.5-6.2,2.3-6.2,5c0,3.6,2.6,5.1,6.2,6.3V118.9z"/>
	</g>
	<g>
		<circle class="st9" cx="608.2" cy="173.5" r="13"/>
		<path class="st10" d="M523.7,409l-11,1.2c0,0-4.9,22,0,51.4s11,58.8,11,58.8s4.9,95.5,7.3,96.7s24.5,8.6,25.7,1.2
			c1.2-7.3,1.2-175.1,1.2-175.1l17.1,80.8c0,0,2.4,101.6,7.3,101.6s20.8-1.2,20.8-9.8s3.7-121.2,3.7-121.2s-1.2-83.3-6.1-85.7
			S523.7,409,523.7,409z"/>
		<path class="st10" d="M533.5,613.5c0,0-11-1.2-13.5,0s-6.1,9.8,0,14.7c6.1,4.9,22,12.2,26.9,12.2c3.4-0.2,6.7-1,9.8-2.4l-2.4-20.8
			L533.5,613.5z"/>
		<path class="st10" d="M582.5,619.6l1.2,17.1c0,0,15.9,2.4,17.1,0s13.5-8.6,14.7-9.8s2.4-14.7-4.9-15.9s-9.8,2.4-9.8,2.4
			L582.5,619.6z"/>
		<path class="st3" d="M479.6,306.1c0,0-29.4,28.2-25.7,42.9s33.1,57.6,33.1,57.6s28.2,14.7,31.8,0s-19.6-11-19.6-11l-18.4-44.1
			l20.8-29.4L479.6,306.1z"/>
		<path class="st3" d="M610.9,263.3c0,0,26.8-17.2,26.2-29s-16.8-49.1-16.8-49.1s-12.6-26.2-17.6-15.5s6.6,22.1,6.6,22.1l7.5,36.6
			l-20.4,19.4L610.9,263.3z"/>
		<path class="st3" d="M533.5,230.2l3.7,23.3l26.9-4.9c0,0-1.2-23.3-1.2-25.7S533.5,230.2,533.5,230.2z"/>
		<path class="st11" d="M532.3,253.5c0,0,30.6-7.3,34.3-4.9s22,4.9,22,4.9l20.8,31.8l-6.1,40.4c0,0-1.2,64.9,1.2,75.9
			s15.9,12.2-12.2,14.7s-33.1-1.2-52.7,3.7s-35.5-2.4-30.6-7.3s13.5-83.3,3.7-90.6s-13.5-45.3-13.5-45.3S532.3,259.6,532.3,253.5z"
			/>
		<path class="st11" d="M584.9,257.1l3.7-3.7l7.3-7.3c0,0,23.9,10.4,22.7,14.1s-9.2,25.1-9.2,25.1l-11,3.7L584.9,257.1z"/>
		<path class="st11" d="M513.9,279.2l-14.7-2.4c0,0-11,12.2-14.7,17.1s-11,17.1-11,17.1l25.7,18.4l19.6-20.8L513.9,279.2z"/>
		<path class="st10" d="M552.2,190l-0.2-1.8c-1.5,0-3,0.2-4.4,0.7c-0.1-1.1-0.1-2.1,0.3-3.2c-1.4,0.4-2.8,1-4.1,1.8l-0.9-3.2
			l-12.2,6c-4.4,2.2-9,4.5-11.5,8.8c-2.8,4.7-2.3,10.7-0.4,15.8s5.1,9.6,7.6,14.5c1,2.1,2.1,4.1,3.5,5.9c4.6,5.8,13.6,6.9,20.1,3.4
			c2.5-1.2,4.5-3.2,5.6-5.7c0.5-1.6,0.8-3.1,1.1-4.8c0.8-3.3,1.7-10.1,4.4-12.2c1.2-0.9,3.5,2.1,4.5,1c2.5-2.9,2-7.4,0.4-10.9
			c-1.5-3.5-3.2-6.9-5.2-10.2C559.9,194.7,552.2,189.8,552.2,190z"/>
	</g>
</g>
</svg>
